# xmcd
#
# Track frame offsets:
#	182
#	17420
#	29550
#	41182
#	53212
#	65350
#	76652
#	89087
#	102907
#	113455
#	126695
#	138215
#	153722
#	171500
#	187000
#	198945
#	214697
#	230985
#
# Disc length: 3245 seconds
#
# Revision: 3
# Processed by: cddbd v1.5.2PL0 Copyright (c) Steve Scherf et al.
# Submitted via: audiograbber 1.83.01
#
DISCID=060cab12
DTITLE=Smokey Robinson and The Miracles - Whatever Makes You Happy - More Of The 
DTITLE=Best - 1961-1971
DYEAR=1900
DGENRE=Oldies
TTITLE0=Money
TTITLE1=Won't You Take Me Back
TTITLE2=Whatever Makes You Happy
TTITLE3=Mighty Good Lovin'  (Live)
TTITLE4=I Need Change
TTITLE5=From Head To Toe
TTITLE6=More, More, More Of Your Love
TTITLE7=Sweet For You Baby
TTITLE8=Beauty Is Only Skin Deep
TTITLE9=Don't Think It's Me
TTITLE10=Dancing's Alright
TTITLE11=You Only Build Me Up To Tear Me Down
TTITLE12=I'll Take You Any Way That You Come
TTITLE13=My World Is Empty Without You
TTITLE14=Dreams Dreams
TTITLE15=Backfire
TTITLE16=Flower Girl
TTITLE17=Faces
EXTD=
EXTT0=
EXTT1=
EXTT2=
EXTT3=
EXTT4=
EXTT5=
EXTT6=
EXTT7=
EXTT8=
EXTT9=
EXTT10=
EXTT11=
EXTT12=
EXTT13=
EXTT14=
EXTT15=
EXTT16=
EXTT17=
PLAYORDER=
